<svg xmlns="http://www.w3.org/2000/svg" viewBox="0 0 64 52">
  <rect width="64" height="52" fill="#0033CC" rx="6"/>
  <path fill="none" stroke="#800000" stroke-width="2.2" stroke-linejoin="round"
    d="M14 17c0-4 3.5-7 7.6-6.5 1.3.1 2.5.7 3.4 1.4.9-.7 2.1-1.3 3.4-1.4 4.1-.5 7.6 2.5 7.6 6.5 0 5.5-7.5 11.2-11 14C21.5 28.2 14 22.5 14 17z"/>
  <path fill="#0033CC" stroke="#FF8000" stroke-width="2" stroke-linejoin="round" d="M32 9l22 33H32z"/>
  <circle cx="43" cy="31" r="7" fill="#FFFFFF"/>
  <path fill="#800000" d="M43 25h1.8v3.8h3.8v1.8h-3.8v3.8H43v-3.8h-3.8v-1.8H43V25z"/>
</svg>
