<svg xmlns="http://www.w3.org/2000/svg" viewBox="0 0 64 52" role="img" aria-labelledby="logoTitle">
  <title id="logoTitle">Corazon y emblema institucional</title>
  <path fill="none" stroke="#800000" stroke-width="2.4" stroke-linejoin="round"
    d="M16 15.5c0-4.2 3.5-7.5 7.8-7 1.3.1 2.5.7 3.5 1.5 1-.8 2.2-1.4 3.5-1.5 4.3-.5 7.8 2.8 7.8 7 0 5.8-7.6 11.8-11.3 14.6C23.6 27.3 16 21.3 16 15.5z"/>
  <path fill="#0033CC" stroke="#FF8000" stroke-width="2.4" stroke-linejoin="round"
    d="M34 8l24 36H34z"/>
  <circle cx="46" cy="33" r="8.5" fill="#FFFFFF"/>
  <path fill="#800000" d="M46 26.5h2v4.5h4.5v2H48v4.5h-2V33h-4.5v-2H46v-4.5z"/>
</svg>
